<svg xmlns="http://www.w3.org/2000/svg" viewBox="0 0 78 14"><defs><style>.cls-1{fill:#fff;}.cls-2{fill:#fbf236;}.cls-3{fill:#222034;}</style></defs><g id="Layer_2" data-name="Layer 2"><g id="Layer_1-2" data-name="Layer 1"><rect class="cls-1" x="2" y="12" width="74" height="1"/><rect class="cls-1" x="76" y="11" width="1" height="1"/><rect class="cls-1" x="1" y="11" width="1" height="1"/><rect class="cls-1" x="75" y="3" width="1" height="1"/><rect class="cls-1" x="2" y="3" width="1" height="1"/><rect class="cls-1" x="3" y="2" width="72" height="1"/><path class="cls-2" d="M76,2V1H2V2H1v9H2v1H76V11h1V2Zm0,2H75V3H3V4H2V3H3V2H75V3h1Z"/><rect class="cls-3" x="2" y="13" width="74" height="1"/><rect class="cls-3" x="76" y="12" width="1" height="1"/><rect class="cls-3" x="1" y="12" width="1" height="1"/><rect class="cls-3" y="2" width="1" height="10"/><rect class="cls-3" x="77" y="2" width="1" height="10"/><rect class="cls-3" x="76" y="1" width="1" height="1"/><rect class="cls-3" x="1" y="1" width="1" height="1"/><rect class="cls-3" x="2" width="74" height="1"/></g></g></svg>