<svg id="Layer_1" data-name="Layer 1" xmlns="http://www.w3.org/2000/svg" viewBox="0 0 1000 239"><defs><style>.cls-1{fill:#d2e8ff;}</style></defs><rect class="cls-1" y="190" width="10" height="10"/><rect class="cls-1" y="170" width="10" height="10"/><rect class="cls-1" y="140" width="10" height="10"/><polygon class="cls-1" points="10 110 0 110 0 120 0 130 10 130 10 120 10 110"/><rect class="cls-1" x="10" y="209" width="10" height="10"/><rect class="cls-1" x="10" y="130" width="10" height="10"/><polygon class="cls-1" points="30 180 30 170 20 170 20 180 10 180 10 190 20 190 30 190 30 180"/><rect class="cls-1" x="30" y="209" width="10" height="10"/><polygon class="cls-1" points="30 140 40 140 40 130 40 120 30 120 30 110 20 110 20 120 20 130 30 130 30 140"/><rect class="cls-1" x="30" y="100" width="10" height="10"/><rect class="cls-1" x="40" y="219" width="10" height="10"/><polygon class="cls-1" points="40 180 40 190 50 190 60 190 60 180 50 180 40 180"/><rect class="cls-1" x="60" y="219" width="10" height="10"/><rect class="cls-1" x="60" y="190" width="10" height="10"/><polygon class="cls-1" points="70 160 60 160 50 160 50 150 60 150 60 140 50 140 40 140 40 150 30 150 30 140 20 140 20 150 20 160 30 160 40 160 40 170 50 170 60 170 60 180 70 180 70 170 80 170 80 160 80 150 70 150 70 160"/><polygon class="cls-1" points="80 199 80 200 80 209 90 209 90 200 90 199 90 190 80 190 80 199"/><rect class="cls-1" x="110" y="219" width="10" height="10"/><rect class="cls-1" x="140" y="190" width="10" height="10"/><rect class="cls-1" x="150" y="110" width="10" height="10"/><rect class="cls-1" x="160" y="209" width="10" height="10"/><rect class="cls-1" x="190" y="219" width="10" height="10"/><polygon class="cls-1" points="200 199 190 199 190 209 200 209 200 200 210 200 210 190 200 190 200 199"/><rect class="cls-1" x="210" y="160" width="10" height="10"/><polygon class="cls-1" points="220 229 220 239 230 239 230 229 230 219 220 219 220 229"/><polygon class="cls-1" points="240 200 250 200 250 209 260 209 260 199 250 199 250 190 240 190 240 200"/><polygon class="cls-1" points="270 200 270 209 280 209 280 200 280 199 280 190 270 190 270 199 270 200"/><rect class="cls-1" x="280" y="180" width="10" height="10"/><rect class="cls-1" x="290" y="219" width="10" height="10"/><rect class="cls-1" x="290" y="190" width="10" height="10"/><rect class="cls-1" x="300" y="209" width="10" height="10"/><rect class="cls-1" x="310" y="199" width="10" height="10"/><polygon class="cls-1" points="310 180 310 190 320 190 320 180 320 170 310 170 310 180"/><polygon class="cls-1" points="320 219 310 219 310 229 320 229 330 229 330 219 330 209 320 209 320 219"/><polygon class="cls-1" points="330 190 330 200 340 200 350 200 350 190 340 190 330 190"/><rect class="cls-1" x="350" y="130" width="10" height="10"/><rect class="cls-1" x="360" y="229" width="10" height="10"/><polygon class="cls-1" points="360 160 370 160 370 150 370 140 360 140 360 150 360 160"/><rect class="cls-1" x="360" y="110" width="10" height="10"/><rect class="cls-1" x="370" y="209" width="10" height="10"/><rect class="cls-1" x="370" y="120" width="10" height="10"/><rect class="cls-1" x="370" y="100" width="10" height="10"/><rect class="cls-1" x="390" y="209" width="10" height="10"/><rect class="cls-1" x="390" y="190" width="10" height="10"/><rect class="cls-1" x="410" y="160" width="10" height="10"/><rect class="cls-1" x="430" y="229" width="10" height="10"/><polygon class="cls-1" points="440 190 440 180 450 180 450 170 440 170 430 170 430 180 420 180 420 190 430 190 440 190"/><rect class="cls-1" x="440" y="199" width="10" height="10"/><rect class="cls-1" x="450" y="209" width="10" height="10"/><rect class="cls-1" x="460" y="190" width="10" height="10"/><polygon class="cls-1" points="480 120 470 120 460 120 460 130 470 130 470 140 460 140 460 150 470 150 470 160 470 170 480 170 480 160 490 160 490 150 490 140 490 130 480 130 480 120"/><rect class="cls-1" x="480" y="199" width="10" height="10"/><rect class="cls-1" x="490" y="160" width="10" height="10"/><rect class="cls-1" x="500" y="190" width="10" height="10"/><rect class="cls-1" x="500" y="170" width="10" height="10"/><rect class="cls-1" x="500" y="140" width="10" height="10"/><rect class="cls-1" x="510" y="209" width="10" height="10"/><polygon class="cls-1" points="520 190 530 190 530 180 530 170 520 170 520 180 510 180 510 190 520 190"/><rect class="cls-1" x="510" y="130" width="10" height="10"/><polygon class="cls-1" points="520 120 520 130 530 130 530 140 540 140 540 130 540 120 530 120 530 110 520 110 520 120"/><rect class="cls-1" x="530" y="209" width="10" height="10"/><rect class="cls-1" x="530" y="100" width="10" height="10"/><rect class="cls-1" x="540" y="219" width="10" height="10"/><rect class="cls-1" x="540" y="199" width="10" height="10"/><polygon class="cls-1" points="540 180 540 190 550 190 560 190 560 180 550 180 540 180"/><rect class="cls-1" x="560" y="190" width="10" height="10"/><polygon class="cls-1" points="570 160 560 160 550 160 550 150 560 150 560 140 550 140 540 140 540 150 530 150 530 140 520 140 520 150 520 160 530 160 540 160 540 170 550 170 560 170 560 180 570 180 570 170 580 170 580 160 580 150 570 150 570 160"/><rect class="cls-1" x="580" y="190" width="10" height="10"/><rect class="cls-1" x="610" y="219" width="10" height="10"/><rect class="cls-1" x="640" y="190" width="10" height="10"/><rect class="cls-1" x="650" y="110" width="10" height="10"/><rect class="cls-1" x="660" y="209" width="10" height="10"/><rect class="cls-1" x="690" y="219" width="10" height="10"/><polygon class="cls-1" points="700 199 690 199 690 209 700 209 700 200 710 200 710 190 700 190 700 199"/><rect class="cls-1" x="710" y="160" width="10" height="10"/><polygon class="cls-1" points="720 229 720 239 730 239 730 229 730 219 720 219 720 229"/><polygon class="cls-1" points="740 200 750 200 750 209 760 209 760 199 750 199 750 190 740 190 740 200"/><polygon class="cls-1" points="770 200 770 209 780 209 780 200 780 199 780 190 770 190 770 199 770 200"/><rect class="cls-1" x="780" y="180" width="10" height="10"/><rect class="cls-1" x="790" y="219" width="10" height="10"/><rect class="cls-1" x="790" y="190" width="10" height="10"/><rect class="cls-1" x="800" y="209" width="10" height="10"/><rect class="cls-1" x="810" y="199" width="10" height="10"/><polygon class="cls-1" points="810 180 810 190 820 190 820 180 820 170 810 170 810 180"/><polygon class="cls-1" points="820 219 810 219 810 229 820 229 830 229 830 219 830 209 820 209 820 219"/><rect class="cls-1" x="850" y="130" width="10" height="10"/><rect class="cls-1" x="860" y="229" width="10" height="10"/><polygon class="cls-1" points="860 160 870 160 870 150 870 140 860 140 860 150 860 160"/><rect class="cls-1" x="860" y="110" width="10" height="10"/><rect class="cls-1" x="870" y="209" width="10" height="10"/><rect class="cls-1" x="870" y="120" width="10" height="10"/><rect class="cls-1" x="870" y="100" width="10" height="10"/><rect class="cls-1" x="890" y="209" width="10" height="10"/><rect class="cls-1" x="890" y="190" width="10" height="10"/><rect class="cls-1" x="910" y="160" width="10" height="10"/><path class="cls-1" d="M921,110.66v-10H911v-10H901v10H891v10H881v10h10v20H881v40h30v-10H891v-10h10v-10h20v-20h10v20h10v10h10v-40H941v-10H921Zm-20,20v-10h10v10Z" transform="translate(-1 -0.66)"/><rect class="cls-1" x="930" y="229" width="10" height="10"/><polygon class="cls-1" points="940 190 940 180 950 180 950 170 940 170 930 170 930 180 920 180 920 190 930 190 940 190"/><rect class="cls-1" x="940" y="199" width="10" height="10"/><rect class="cls-1" x="950" y="209" width="10" height="10"/><rect class="cls-1" x="960" y="190" width="10" height="10"/><polygon class="cls-1" points="980 120 970 120 960 120 960 130 970 130 970 140 960 140 960 150 970 150 970 160 970 170 980 170 980 160 990 160 990 150 990 140 990 130 980 130 980 120"/><rect class="cls-1" x="980" y="199" width="10" height="10"/><rect class="cls-1" x="980" y="180" width="10" height="10"/><rect class="cls-1" x="990" y="160" width="10" height="10"/><path class="cls-1" d="M991,.66H1v30H11v10H1v60H31v-10H51v-10H61v30H81v10h30v20h10v-10h20v10H131v10h10v10H131v-10H101v-20H71v10H81v10H91v20h10v-10h20v10h10v10h10v-10h10v10h10v10h10v-20h10v10h10v-10h10v-10H191v-10H181v10H171v-10h10v-10h10v-10H181v-10H161v40H151v-40H141v-10h10v-10H131v10H121v-10h10v-10h40v10H161v10h20v-10h30v-10h10v10H211v10h20v10H211v-10H201v20h20v10H201v10h30v-10h20v-30h10v10h20v10H261v10H251v20H241v-10H231v30h20v10h20v-10H261v-10h10v-10h20v10h20v-10h10v10h10v-20h10v30h20v-10H351v-30H321v10H301v-20H291v-10h10v10h10v10h10v-20h10v10h10v-10h10v-10H341v-10H311v-10h40v20h10v-10h10v-10h10v10h10v-10h10v10H391v10H381v10h10v20H381v40h30v-10H391v-10h10v-10h20v-20h10v20h10v10h10v-40H441v-10H421v-10H411v-20h10v20h10v-10h20v10H441v10h20v-10h10v-10h10v10H471v10h20v20h20v-20H501v-10H491v-10h10v10h30v-10h20v-10h10v30h20v10h30v20h10v-10h20v10H631v10h10v10H631v-10H601v-20H571v10h10v10h10v20h10v-10h20v10h10v10h10v-10h10v10h10v10h10v-20h10v10h10v-10h10v-10H691v-10H681v10H671v-10h10v-10h10v-10H681v-10H661v40H651v-40H641v-10h10v-10H631v10H621v-10h10v-10h40v10H661v10h20v-10h30v-10h10v10H711v10h20v10H711v-10H701v20h20v10H701v10h30v-10h20v-30h10v10h20v10H761v10H751v20H741v-10H731v30h20v10h20v-10H761v-10h10v-10h20v10h20v-10h10v10h10v-20h10v40H831v10h20v-20h10v-10H851v-30H821v10H801v-20H791v-10h10v10h10v10h10v-20h10v10h10v-10h10v-10H841v-10H811v-10h40v20h10v-10h10v-10h10v10h10v-10h10v-10h20v20h10v-10h20v10H941v10h20v-10h10v-10h10v10H971v10h20v20h10v-30H991v-10h10v-50H991v-10h10V.66Zm-720,150v-10h10v10Zm140-10H401v-20h10v20Zm360,10v-10h10v10Zm-150-70H611v-20h10v20Zm-500,0H111v-20h10v20Zm840-30H951v-10h10Zm-230-10v-10h10v10h10v10H741v-10Zm-130,30H591v-10h10Zm-270-20v-10H321v-10h20v20Zm240,0v-10h10v10Zm-110-10H451v-10h10Zm140,0h10v10H601Zm50-10h10v10H651Zm140,0h20v10H791Zm30,10h10v10H821Zm40,0h10v10H861Zm-760,30H91v-10h10Zm-60-40H51v10H41Zm50,20v-10h10v10Zm-50,0H51v10H41Zm20,0H71v10H61Zm90,10v-10H141v-10H131v-10h10v10h20v10h10v10H161v10H151Zm150,0v-10h10v20H301Zm60-10h10v10H361Zm40,0v-10h10v10h10v-10h10v10H421v10H411v-10Zm140,0h10v10H541Zm110,10h10v-10h10v10H661v10H651Zm40,0v-10h10v-10h10v10H701v10Zm30-10h10v10H721Zm70,10v-10h20v20H801v-10Zm120-10h10v10H911Zm-900,40v-10H21v10Zm80,20v-10H81v-10H91v10h10v10Zm120-30v-10h20v10H211Zm30,20v-10h10v10Zm30,10v-10H261v-10h10v-10h10v10H271v10h10v10Zm20-20v-10h10v10Zm70-10v-10h10v10Zm150,10v-10h10v10Zm80,20v-10H581v-10h10v10h10v10Zm120-30v-10h10v10Zm30,20v-10h10v10Zm30,10v-10H761v-10h10v-10h10v10H771v10h10v10Zm20-20v-10h10v10Zm70-10v-10h10v10Zm90-10h10v10H951Z" transform="translate(-1 -0.66)"/></svg>