<svg xmlns="http://www.w3.org/2000/svg" viewBox="0 0 1001 239.66"><defs><style>.cls-1{fill:#5f64a5;}</style></defs><g id="Layer_2" data-name="Layer 2"><g id="Layer_1-2" data-name="Layer 1"><rect class="cls-1" x="990" y="39" width="10" height="10"/><rect class="cls-1" x="990" y="59" width="10" height="10"/><rect class="cls-1" x="990" y="89" width="10" height="10"/><polygon class="cls-1" points="990 129 1000 129 1000 119 1000 109 990 109 990 119 990 129"/><rect class="cls-1" x="980" y="20" width="10" height="10"/><rect class="cls-1" x="980" y="99" width="10" height="10"/><polygon class="cls-1" points="970 59 970 69 980 69 980 59 990 59 990 49 980 49 970 49 970 59"/><rect class="cls-1" x="960" y="20" width="10" height="10"/><polygon class="cls-1" points="970 99 960 99 960 109 960 119 970 119 970 129 980 129 980 119 980 109 970 109 970 99"/><rect class="cls-1" x="960" y="129" width="10" height="10"/><rect class="cls-1" x="950" y="10" width="10" height="10"/><polygon class="cls-1" points="960 59 960 49 950 49 940 49 940 59 950 59 960 59"/><rect class="cls-1" x="930" y="10" width="10" height="10"/><rect class="cls-1" x="930" y="39" width="10" height="10"/><polygon class="cls-1" points="930 79 940 79 950 79 950 89 940 89 940 99 950 99 960 99 960 89 970 89 970 99 980 99 980 89 980 79 970 79 960 79 960 69 950 69 940 69 940 59 930 59 930 69 920 69 920 79 920 89 930 89 930 79"/><polygon class="cls-1" points="920 40 920 39 920 30 910 30 910 39 910 40 910 49 920 49 920 40"/><rect class="cls-1" x="880" y="10" width="10" height="10"/><rect class="cls-1" x="850" y="39" width="10" height="10"/><rect class="cls-1" x="840" y="119" width="10" height="10"/><rect class="cls-1" x="830" y="20" width="10" height="10"/><rect class="cls-1" x="800" y="10" width="10" height="10"/><polygon class="cls-1" points="800 40 810 40 810 30 800 30 800 39 790 39 790 49 800 49 800 40"/><rect class="cls-1" x="780" y="69" width="10" height="10"/><polygon class="cls-1" points="780 10 780 0 770 0 770 10 770 20 780 20 780 10"/><polygon class="cls-1" points="760 39 750 39 750 30 740 30 740 40 750 40 750 49 760 49 760 39"/><polygon class="cls-1" points="730 39 730 30 720 30 720 39 720 40 720 49 730 49 730 40 730 39"/><rect class="cls-1" x="710" y="49" width="10" height="10"/><rect class="cls-1" x="700" y="10" width="10" height="10"/><rect class="cls-1" x="700" y="39" width="10" height="10"/><rect class="cls-1" x="690" y="20" width="10" height="10"/><rect class="cls-1" x="680" y="30" width="10" height="10"/><polygon class="cls-1" points="690 59 690 49 680 49 680 59 680 69 690 69 690 59"/><polygon class="cls-1" points="680 20 690 20 690 10 680 10 670 10 670 20 670 30 680 30 680 20"/><polygon class="cls-1" points="670 49 670 39 660 39 650 39 650 49 660 49 670 49"/><rect class="cls-1" x="640" y="99" width="10" height="10"/><rect class="cls-1" x="630" width="10" height="10"/><polygon class="cls-1" points="640 79 630 79 630 89 630 99 640 99 640 89 640 79"/><rect class="cls-1" x="630" y="119" width="10" height="10"/><rect class="cls-1" x="620" y="20" width="10" height="10"/><rect class="cls-1" x="620" y="109" width="10" height="10"/><rect class="cls-1" x="620" y="129" width="10" height="10"/><rect class="cls-1" x="600" y="20" width="10" height="10"/><rect class="cls-1" x="600" y="39" width="10" height="10"/><rect class="cls-1" x="580" y="69" width="10" height="10"/><rect class="cls-1" x="560" width="10" height="10"/><polygon class="cls-1" points="560 49 560 59 550 59 550 69 560 69 570 69 570 59 580 59 580 49 570 49 560 49"/><rect class="cls-1" x="550" y="30" width="10" height="10"/><rect class="cls-1" x="540" y="20" width="10" height="10"/><rect class="cls-1" x="530" y="39" width="10" height="10"/><polygon class="cls-1" points="520 119 530 119 540 119 540 109 530 109 530 99 540 99 540 89 530 89 530 79 530 69 520 69 520 79 510 79 510 89 510 99 510 109 520 109 520 119"/><rect class="cls-1" x="510" y="30" width="10" height="10"/><rect class="cls-1" x="500" y="69" width="10" height="10"/><rect class="cls-1" x="490" y="39" width="10" height="10"/><rect class="cls-1" x="490" y="59" width="10" height="10"/><rect class="cls-1" x="490" y="89" width="10" height="10"/><rect class="cls-1" x="480" y="20" width="10" height="10"/><polygon class="cls-1" points="480 49 470 49 470 59 470 69 480 69 480 59 490 59 490 49 480 49"/><rect class="cls-1" x="480" y="99" width="10" height="10"/><polygon class="cls-1" points="480 119 480 109 470 109 470 99 460 99 460 109 460 119 470 119 470 129 480 129 480 119"/><rect class="cls-1" x="460" y="20" width="10" height="10"/><rect class="cls-1" x="460" y="129" width="10" height="10"/><rect class="cls-1" x="450" y="10" width="10" height="10"/><rect class="cls-1" x="450" y="30" width="10" height="10"/><polygon class="cls-1" points="460 59 460 49 450 49 440 49 440 59 450 59 460 59"/><rect class="cls-1" x="430" y="39" width="10" height="10"/><polygon class="cls-1" points="430 79 440 79 450 79 450 89 440 89 440 99 450 99 460 99 460 89 470 89 470 99 480 99 480 89 480 79 470 79 460 79 460 69 450 69 440 69 440 59 430 59 430 69 420 69 420 79 420 89 430 89 430 79"/><rect class="cls-1" x="410" y="39" width="10" height="10"/><rect class="cls-1" x="380" y="10" width="10" height="10"/><rect class="cls-1" x="350" y="39" width="10" height="10"/><rect class="cls-1" x="340" y="119" width="10" height="10"/><rect class="cls-1" x="330" y="20" width="10" height="10"/><rect class="cls-1" x="300" y="10" width="10" height="10"/><polygon class="cls-1" points="300 40 310 40 310 30 300 30 300 39 290 39 290 49 300 49 300 40"/><rect class="cls-1" x="280" y="69" width="10" height="10"/><polygon class="cls-1" points="280 10 280 0 270 0 270 10 270 20 280 20 280 10"/><polygon class="cls-1" points="260 39 250 39 250 30 240 30 240 40 250 40 250 49 260 49 260 39"/><polygon class="cls-1" points="230 39 230 30 220 30 220 39 220 40 220 49 230 49 230 40 230 39"/><rect class="cls-1" x="210" y="49" width="10" height="10"/><rect class="cls-1" x="200" y="10" width="10" height="10"/><rect class="cls-1" x="200" y="39" width="10" height="10"/><rect class="cls-1" x="190" y="20" width="10" height="10"/><rect class="cls-1" x="180" y="30" width="10" height="10"/><polygon class="cls-1" points="190 59 190 49 180 49 180 59 180 69 190 69 190 59"/><polygon class="cls-1" points="180 20 190 20 190 10 180 10 170 10 170 20 170 30 180 30 180 20"/><rect class="cls-1" x="140" y="99" width="10" height="10"/><rect class="cls-1" x="130" width="10" height="10"/><polygon class="cls-1" points="140 79 130 79 130 89 130 99 140 99 140 89 140 79"/><rect class="cls-1" x="130" y="119" width="10" height="10"/><rect class="cls-1" x="120" y="20" width="10" height="10"/><rect class="cls-1" x="120" y="109" width="10" height="10"/><rect class="cls-1" x="120" y="129" width="10" height="10"/><rect class="cls-1" x="100" y="20" width="10" height="10"/><rect class="cls-1" x="100" y="39" width="10" height="10"/><rect class="cls-1" x="80" y="69" width="10" height="10"/><path class="cls-1" d="M80,129v10H90v10h10V139h10V129h10V119H110V99h10V59H90V69h20V79H100V89H80v20H70V89H60V79H50v40H60v10H80Zm10-20h10v10H90Z"/><rect class="cls-1" x="60" width="10" height="10"/><polygon class="cls-1" points="60 49 60 59 50 59 50 69 60 69 70 69 70 59 80 59 80 49 70 49 60 49"/><rect class="cls-1" x="50" y="30" width="10" height="10"/><rect class="cls-1" x="40" y="20" width="10" height="10"/><rect class="cls-1" x="30" y="39" width="10" height="10"/><polygon class="cls-1" points="20 119 30 119 40 119 40 109 30 109 30 99 40 99 40 89 30 89 30 79 30 69 20 69 20 79 10 79 10 89 10 99 10 109 20 109 20 119"/><rect class="cls-1" x="10" y="30" width="10" height="10"/><rect class="cls-1" x="10" y="49" width="10" height="10"/><rect class="cls-1" y="69" width="10" height="10"/><path class="cls-1" d="M11,239.66h990v-30H991v-10h10v-60H971v10H951v10H941v-30H921v-10H891v-20H881v10H861v-10h10v-10H861v-10h10v10h30v20h30v-10H921v-10H911v-20H901v10H881v-10H871v-10H861v10H851v-10H841v-10H831v20H821v-10H811v10H801v10h10v10h10v-10h10v10H821v10H811v10h10v10h20v-40h10v40h10v10H851v10h20v-10h10v10H871v10H831v-10h10v-10H821v10H791v10H781v-10h10v-10H771v-10h20v10h10v-20H781v-10h20v-10H771v10H751v30H741v-10H721v-10h20v-10h10v-20h10v10h10v-30H751v-10H731v10h10v10H731v10H711v-10H691v10H681v-10H671v20H661v-30H641v10h10v30h30v-10h20v20h10v10H701v-10H691v-10H681v20H671v-10H661v10H651v10h10v10h30v10H651v-20H641v10H631v10H621v-10H611v10H601v-10h10v-10h10v-10H611v-20h10v-40H591v10h20v10H601v10H581v20H571v-20H561v-10H551v40h10v10h20v10h10v20H581v-20H571v10H551v-10h10v-10H541v10H531v10H521v-10h10v-10H511v-20H491v20h10v10h10v10H501v-10H471v10H451v10H441v-30H421v-10H391v-20H381v10H361v-10h10v-10H361v-10h10v10h30v20h30v-10H421v-10H411v-20H401v10H381v-10H371v-10H361v10H351v-10H341v-10H331v20H321v-10H311v10H301v10h10v10h10v-10h10v10H321v10H311v10h10v10h20v-40h10v40h10v10H351v10h20v-10h10v10H371v10H331v-10h10v-10H321v10H291v10H281v-10h10v-10H271v-10h20v10h10v-20H281v-10h20v-10H271v10H251v30H241v-10H221v-10h20v-10h10v-20h10v10h10v-30H251v-10H231v10h10v10H231v10H211v-10H191v10H181v-10H171v20H161v-40h10v-10H151v20H141v10h10v30h30v-10h20v20h10v10H201v-10H191v-10H181v20H171v-10H161v10H151v10h10v10h30v10H151v-20H141v10H131v10H121v-10H111v10H101v10H81v-20H71v10H51v-10H61v-10H41v10H31v10H21v-10H31v-10H11v-20H1v30H11v10H1v50H11v10H1v30Zm970-90h10v10H981Zm-30,30h10v10H951Zm0,20h10v10H951Zm-20-20h10v10H931Zm-30-50h10v10h10v10H911v-10H901Zm0,40h10v10H901Zm0,20h10v10H901Zm-20-20v-10h10v20H881Zm-50,10h10v-10h10v20h10v10h10v10H861v-10H841v-10H831Zm-60-20h20v10H771Zm-20-20h10v10H751Zm-30-50h10v10H721Zm0,60h10v-10H721v-10h10v10h10v10H731v10H721Zm-20,0h10v10H701Zm-10,30v-10h10v20H691Zm-30,20v-10h10v10h10v10H661Zm-30-40h10v10H631Zm0,20h10v10H631Zm-40-70v-10h10v20H591Zm-20,80h10v-10h10v10h10v10H591v-10H581v10H571Zm-30,10h10v10H541Zm-60-50h10v10H481Zm-30,30h10v10H451Zm-20,10v10H421v-10Zm-30-60h10v10h10v10H411v-10H401Zm0,40h10v10H401Zm0,20v10H391v-10Zm-20-20v-10h10v20H381Zm-30,40H341v-10h10Zm-20-30h10v-10h10v10H341v10H331Zm-30,10v-10h10v10H301v10H291v-10Zm-20-30h10v10H281Zm-10,20h10v10H271Zm-20-40h10v10H251Zm0,50h10v10h10v10H261v-10H251Zm-30-100h10v10H221Zm0,60h10v-10H221v-10h10v10h10v10H231v10H221Zm-20,0h10v10H201Zm-10,30v-10h10v10h10v10H191Zm0,20h20v10H191Zm-20-10h10v10H171Zm-40-30h10v10H131Zm0,30h10v10H131Zm-50-10H91v10H81Zm-40-20H51v10H41Zm0,30H51v10H41Z"/></g></g></svg>