<svg xmlns="http://www.w3.org/2000/svg" xmlns:xlink="http://www.w3.org/1999/xlink" viewBox="0 0 2368.26 1807.39"><defs><style>.cls-1{mask:url(#mask);}.cls-2{opacity:0.7;}.cls-3{fill:#181818;}.cls-4{fill:#010101;}.cls-5{mask:url(#mask-2);}.cls-6{fill:url(#linear-gradient);}.cls-7{fill:url(#linear-gradient-2);}.cls-8{fill:url(#linear-gradient-3);}.cls-9{fill:url(#linear-gradient-4);}.cls-10{fill:url(#linear-gradient-5);}.cls-11{fill:url(#linear-gradient-6);}.cls-12{mask:url(#mask-3);}.cls-13{mask:url(#mask-4);}.cls-14{mask:url(#mask-5);}.cls-15{mask:url(#mask-6);}.cls-16{mask:url(#mask-7);}.cls-17{filter:url(#luminosity-noclip-7);}.cls-18{filter:url(#luminosity-noclip-6);}.cls-19{filter:url(#luminosity-noclip-5);}.cls-20{filter:url(#luminosity-noclip-4);}.cls-21{filter:url(#luminosity-noclip-3);}.cls-22{filter:url(#luminosity-noclip-2);}.cls-23{filter:url(#luminosity-noclip);}</style><filter id="luminosity-noclip" x="1412.44" y="373.24" width="955.82" height="623.58" filterUnits="userSpaceOnUse" color-interpolation-filters="sRGB"><feFlood flood-color="#fff" result="bg"/><feBlend in="SourceGraphic" in2="bg"/></filter><mask id="mask" x="1412.44" y="373.24" width="955.82" height="623.58" maskUnits="userSpaceOnUse"><g class="cls-23"><image width="957" height="625" transform="translate(1411.57 372.47)" xlink:href="Asset%2011.png"/></g></mask><filter id="luminosity-noclip-2" x="0" y="567.48" width="582.69" height="373.13" filterUnits="userSpaceOnUse" color-interpolation-filters="sRGB"><feFlood flood-color="#fff" result="bg"/><feBlend in="SourceGraphic" in2="bg"/></filter><mask id="mask-2" x="0" y="567.48" width="582.69" height="373.13" maskUnits="userSpaceOnUse"><g class="cls-22"><image width="584" height="374" transform="translate(-0.43 567.47)" xlink:href="Asset%2013.png"/></g></mask><linearGradient id="linear-gradient" x1="270.29" y1="495.33" x2="452.09" y2="772.5" gradientUnits="userSpaceOnUse"><stop offset="0" stop-color="#b7b7b7"/><stop offset="1" stop-color="#f0f0f0"/></linearGradient><linearGradient id="linear-gradient-2" x1="48.3" y1="640.93" x2="230.1" y2="918.1" xlink:href="#linear-gradient"/><linearGradient id="linear-gradient-3" x1="25.3" y1="656.02" x2="207.1" y2="933.19" xlink:href="#linear-gradient"/><linearGradient id="linear-gradient-4" x1="111.88" y1="599.23" x2="293.68" y2="876.39" xlink:href="#linear-gradient"/><linearGradient id="linear-gradient-5" x1="211.25" y1="534.05" x2="393.05" y2="811.22" xlink:href="#linear-gradient"/><linearGradient id="linear-gradient-6" x1="318.35" y1="463.8" x2="500.15" y2="740.97" xlink:href="#linear-gradient"/><filter id="luminosity-noclip-3" x="252.26" y="0" width="986.29" height="669.82" filterUnits="userSpaceOnUse" color-interpolation-filters="sRGB"><feFlood flood-color="#fff" result="bg"/><feBlend in="SourceGraphic" in2="bg"/></filter><mask id="mask-3" x="252.26" y="0" width="986.29" height="669.82" maskUnits="userSpaceOnUse"><g class="cls-21"><image width="987" height="671" transform="translate(251.57 -0.53)" xlink:href="Asset%2015.png"/></g></mask><filter id="luminosity-noclip-4" x="255.57" y="920.16" width="802.48" height="618.47" filterUnits="userSpaceOnUse" color-interpolation-filters="sRGB"><feFlood flood-color="#fff" result="bg"/><feBlend in="SourceGraphic" in2="bg"/></filter><mask id="mask-4" x="255.57" y="920.16" width="802.48" height="618.47" maskUnits="userSpaceOnUse"><g class="cls-20"><image width="804" height="620" transform="translate(254.57 919.47)" xlink:href="Asset%2017.png"/></g></mask><filter id="luminosity-noclip-5" x="1256.7" y="1351.65" width="652.23" height="455.74" filterUnits="userSpaceOnUse" color-interpolation-filters="sRGB"><feFlood flood-color="#fff" result="bg"/><feBlend in="SourceGraphic" in2="bg"/></filter><mask id="mask-5" x="1256.7" y="1351.65" width="652.23" height="455.74" maskUnits="userSpaceOnUse"><g class="cls-19"><image width="653" height="456" transform="translate(1256.57 1351.47)" xlink:href="Asset%2019.png"/></g></mask><filter id="luminosity-noclip-6" x="1429.47" y="75.08" width="483.87" height="453.21" filterUnits="userSpaceOnUse" color-interpolation-filters="sRGB"><feFlood flood-color="#fff" result="bg"/><feBlend in="SourceGraphic" in2="bg"/></filter><mask id="mask-6" x="1429.47" y="75.08" width="483.87" height="453.21" maskUnits="userSpaceOnUse"><g class="cls-18"><image width="485" height="454" transform="translate(1428.57 74.47)" xlink:href="Asset%20111.png"/></g></mask><filter id="luminosity-noclip-7" x="1458.44" y="923.57" width="487.28" height="415.72" filterUnits="userSpaceOnUse" color-interpolation-filters="sRGB"><feFlood flood-color="#fff" result="bg"/><feBlend in="SourceGraphic" in2="bg"/></filter><mask id="mask-7" x="1458.44" y="923.57" width="487.28" height="415.72" maskUnits="userSpaceOnUse"><g class="cls-17"><image width="489" height="416" transform="translate(1457.57 923.47)" xlink:href="Asset%20113.png"/></g></mask></defs><g id="Layer_2" data-name="Layer 2"><g id="Layer_1-2" data-name="Layer 1"><g class="cls-1"><image class="cls-2" width="957" height="625" transform="translate(1411.57 372.47)" xlink:href="Asset%2012.png"/></g><path class="cls-3" d="M1449,804.18s46.32-51.17,105.21-45.26c51.74,5.2,96.46,30.87,108.3,48.25l-69.29-155.55C1549.84,667.25,1487.24,706.35,1449,804.18Z"/><path d="M1838.73,600.05s-33.41-17.27-42.65-16.36l40,89.86-185-30.76a72.77,72.77,0,0,0-23.24-.16,189,189,0,0,0-34.63,9l69.29,155.55a16.94,16.94,0,0,1,3,6.67s35-47.74,81.36-55.53,110.79,21.38,141.68,51,104.59,101.29,104.59,101.29l-141-316.55Z"/><path class="cls-3" d="M2038.23,459.84a72.84,72.84,0,0,0-15.42,17.38L1922,635.31l-40-89.86c-6.85,6.26-16.36,42.65-16.36,42.65l-13.41,6,141,316.55s-4-102.72-5.34-145.51,20-110.19,56.84-139.44,95.69-23.34,95.69-23.34a16.88,16.88,0,0,1-3-6.67l-69.29-155.55A189.23,189.23,0,0,0,2038.23,459.84Z"/><path class="cls-4" d="M2068.08,440.11l69.29,155.55c-5-20.43,5.83-70.85,36.57-112.78,35-47.74,104-47.95,104-47.95C2179.67,397.9,2108.74,418.28,2068.08,440.11Z"/><g class="cls-5"><image class="cls-2" width="584" height="374" transform="translate(-0.43 567.47)" xlink:href="Asset%2014.png"/></g><path class="cls-6" d="M406.24,703.69l-1-3.78A9,9,0,0,0,406.24,703.69Z"/><path class="cls-7" d="M136.27,774l1,3.78A9.32,9.32,0,0,0,136.27,774Z"/><path class="cls-8" d="M23.22,755.2s28.69-23.43,59.47-15.55c27,6.91,48.69,24.13,53.58,34.3L112,685.85C87.71,690.65,51.36,706.37,23.22,755.2Z"/><path class="cls-9" d="M246.4,678.23s-16.34-11.85-21.32-12.11l14,50.9-95.67-31.2a39,39,0,0,0-12.31-2,101.6,101.6,0,0,0-19.1,2L136.27,774a9.32,9.32,0,0,1,1,3.78s22.4-22.51,47.63-22.92S242,775.06,256,793.27s47.36,62.15,47.36,62.15L254,676.14Z"/><path class="cls-10" d="M363.52,619.88a38.87,38.87,0,0,0-9.58,8l-66.22,75.77-14-50.9C269.56,655.5,261.59,674,261.59,674l-7.6,2.1,49.37,179.28s6.15-54.81,8.86-77.63,19.49-56.85,41.37-69.41,52.65-4.69,52.65-4.69a9,9,0,0,1-1-3.78l-24.26-88.1A101.83,101.83,0,0,0,363.52,619.88Z"/><path class="cls-11" d="M380.94,611.81l24.26,88.1c-1-11.24,8.78-37.12,28.46-56.9,22.41-22.51,59-17.07,59-17.07C443.54,598.39,404.27,603.5,380.94,611.81Z"/><path class="cls-3" d="M406.24,703.69l-1-3.78A9,9,0,0,0,406.24,703.69Z"/><path class="cls-3" d="M23.22,755.2s28.69-23.43,59.47-15.55c27,6.91,48.69,24.13,53.58,34.3L112,685.85C87.71,690.65,51.36,706.37,23.22,755.2Z"/><path d="M246.4,678.23s-16.34-11.85-21.32-12.11l14,50.9-95.67-31.2a39,39,0,0,0-12.31-2,101.6,101.6,0,0,0-19.1,2L136.27,774a9.32,9.32,0,0,1,1,3.78s22.4-22.51,47.63-22.92S242,775.06,256,793.27s47.36,62.15,47.36,62.15L254,676.14Z"/><path class="cls-3" d="M363.52,619.88a38.87,38.87,0,0,0-9.58,8l-66.22,75.77-14-50.9C269.56,655.5,261.59,674,261.59,674l-7.6,2.1,49.37,179.28s6.15-54.81,8.86-77.63,19.49-56.85,41.37-69.41,52.65-4.69,52.65-4.69a9,9,0,0,1-1-3.78l-24.26-88.1A101.83,101.83,0,0,0,363.52,619.88Z"/><path class="cls-4" d="M380.94,611.81l24.26,88.1c-1-11.24,8.78-37.12,28.46-56.9,22.41-22.51,59-17.07,59-17.07C443.54,598.39,404.27,603.5,380.94,611.81Z"/><g class="cls-12"><image class="cls-2" width="987" height="671" transform="translate(251.57 -0.53)" xlink:href="Asset%2016.png"/></g><path class="cls-3" d="M989.45,208.85l-3.31-6.51A17,17,0,0,0,989.45,208.85Z"/><path class="cls-3" d="M309.34,445.7S353,392.23,412.11,395.13C464,397.68,510,421,522.73,437.79L445.6,286C403,303.8,342.51,346,309.34,445.7Z"/><path d="M688.12,222s-34.25-15.54-43.43-14.17l44.56,87.71L502.94,274.21a73,73,0,0,0-23.22,1A189.64,189.64,0,0,0,445.6,286l77.13,151.81A17.07,17.07,0,0,1,526,444.3s32.51-49.46,78.41-59.6,111.74,15.69,144.1,43.72,109.63,95.83,109.63,95.83l-157-308.95Z"/><path class="cls-3" d="M880.21,71.75A73,73,0,0,0,865.69,89.9L773,252.93l-44.56-87.71c-6.53,6.61-14.17,43.43-14.17,43.43l-13.09,6.65,157,309s-9.2-102.39-12.76-145S859.81,268.13,895.07,237s94.38-28.19,94.38-28.19a17,17,0,0,1-3.31-6.51L909,50.53A189,189,0,0,0,880.21,71.75Z"/><path class="cls-4" d="M909,50.53l77.13,151.81c-6-20.15,2.21-71.05,30.77-114.5,32.52-49.46,101.44-53.18,101.44-53.18C1018.31,2.68,948.51,26.65,909,50.53Z"/><g class="cls-13"><image class="cls-2" width="804" height="620" transform="translate(254.57 919.47)" xlink:href="Asset%2018.png"/></g><path class="cls-3" d="M718,1407.5l3.92-5.44A15.69,15.69,0,0,0,718,1407.5Z"/><path class="cls-3" d="M238.56,952s62,13.14,84.51,62.62c19.77,43.46,20,90.81,11.71,108.23L426.25,996C393.8,968.77,333.86,937.14,238.56,952Z"/><path d="M580.54,1167.05s-1.73-34.5-6.71-41.41L521,1198.91l-61-161a66.89,66.89,0,0,0-10.61-18.52A173.72,173.72,0,0,0,426.25,996l-91.47,126.82a15.43,15.43,0,0,1-3.92,5.44s54.05,5.74,81.64,38.94,34.2,97.81,24.93,136-32.1,129.8-32.1,129.8l186.14-258.1Z"/><path class="cls-3" d="M784,1260.65a67.15,67.15,0,0,0-20.92-4.21l-172-7,52.84-73.28c-8.14-2.54-41.41,6.71-41.41,6.71l-10.94-7.89L405.33,1433s79.7-50.58,113-71.43,96.71-35,136.93-19.28S718,1407.5,718,1407.5a15.69,15.69,0,0,1,3.92-5.44l91.47-126.82A174,174,0,0,0,784,1260.65Z"/><path class="cls-4" d="M813.39,1275.24l-91.47,126.82c13.91-13.4,58.93-28.09,106.4-23,54,5.73,86.09,60.43,86.09,60.43C898.42,1344.32,849.49,1297.43,813.39,1275.24Z"/><g class="cls-14"><image class="cls-2" width="653" height="456" transform="translate(1256.57 1351.47)" xlink:href="Asset%20110.png"/></g><path class="cls-3" d="M1701.81,1603.76l1.38-3.67A9,9,0,0,0,1701.81,1603.76Z"/><path class="cls-3" d="M1361.74,1420.16s37-2.07,57.24,22.39c17.79,21.49,25.19,48.16,23.16,59.26l32.19-85.52C1451.86,1405.88,1413.22,1397.21,1361.74,1420.16Z"/><path d="M1587.51,1489.16s-6.25-19.19-10.12-22.33l-18.6,49.41-59-81.5a39,39,0,0,0-8.81-8.82,101.61,101.61,0,0,0-16.62-9.63l-32.19,85.52a9.09,9.09,0,0,1-1.38,3.67s31.36-5,52,9.47,34.24,49.94,34.86,72.91,1.74,78.11,1.74,78.11l65.52-174Z"/><path class="cls-3" d="M1716.55,1510.85a39.18,39.18,0,0,0-12.45.83L1606,1534l18.61-49.41c-5-.19-22.34,10.11-22.34,10.11l-7.37-2.77-65.52,174s37.22-40.71,52.83-57.57,49.2-34.52,74.28-31.81,45.34,27.17,45.34,27.17a9,9,0,0,1,1.38-3.67l32.19-85.51A101.46,101.46,0,0,0,1716.55,1510.85Z"/><path class="cls-4" d="M1735.38,1514.58l-32.19,85.51c5.79-9.68,28.94-24.85,56.48-29.27,31.37-5,57.8,20.92,57.8,20.92C1793.91,1540.54,1759.14,1521.57,1735.38,1514.58Z"/><g class="cls-15"><image class="cls-2" width="485" height="454" transform="translate(1428.57 74.47)" xlink:href="Asset%20112.png"/></g><path class="cls-3" d="M1584.62,146l-2.42,3.08A9.14,9.14,0,0,0,1584.62,146Z"/><path class="cls-3" d="M1853.55,423.52s-35.89-9.17-47.83-38.61c-10.49-25.85-9.51-53.5-4.23-63.48L1745,393.27C1763.32,410,1797.55,429.88,1853.55,423.52Z"/><path d="M1659.07,289.69s.17,20.18,2.92,24.34l32.62-41.51,31.73,95.5a39.27,39.27,0,0,0,5.74,11.07A101.44,101.44,0,0,0,1745,393.27l56.47-71.84a9.16,9.16,0,0,1,2.43-3.08s-31.42-4.65-46.73-24.7-17.61-57.94-11.27-80,21.88-75,21.88-75l-114.92,146.2Z"/><path class="cls-3" d="M1542.56,230.12a39.3,39.3,0,0,0,12.12,3L1655,241.36l-32.63,41.5c4.69,1.69,24.34-2.91,24.34-2.91l6.2,4.87,114.92-146.2s-47.76,27.6-67.72,39-57.32,18.09-80.42,7.95-35-39.57-35-39.57a9.14,9.14,0,0,1-2.42,3.08l-56.48,71.84A102.21,102.21,0,0,0,1542.56,230.12Z"/><path class="cls-4" d="M1525.72,220.89l56.48-71.84c-8.45,7.49-35.09,15-62.69,10.89-31.42-4.65-48.8-37.36-48.8-37.36C1477.74,178.5,1505.18,207.06,1525.72,220.89Z"/><g class="cls-16"><image class="cls-2" width="489" height="416" transform="translate(1457.57 923.47)" xlink:href="Asset%20114.png"/></g><path class="cls-3" d="M1827,1071l-2.44-3.06A9.07,9.07,0,0,0,1827,1071Z"/><path class="cls-3" d="M1495.17,1269.05s17.16-32.82,48.55-37.69c27.57-4.28,54.26,3,62.75,10.46l-57-71.45C1529.07,1184.34,1501.83,1213.08,1495.17,1269.05Z"/><path d="M1670.07,1110.49s-19.69-4.47-24.37-2.75l32.91,41.28-100.23,9a39,39,0,0,0-12.09,3,101,101,0,0,0-16.78,9.34l57,71.45a9.07,9.07,0,0,1,2.45,3.06s11.74-29.51,34.77-39.81,60.43-3.83,80.47,7.4,68,38.52,68,38.52l-115.91-145.41Z"/><path class="cls-3" d="M1754.79,1010.76a39.3,39.3,0,0,0-5.67,11.11l-31.07,95.71-32.91-41.28c-2.72,4.18-2.75,24.36-2.75,24.36l-6.16,4.92L1792.14,1251s-15.9-52.82-22.39-74.86-4.45-59.94,10.72-80.1,46.56-25,46.56-25a9.07,9.07,0,0,1-2.44-3.06l-57-71.46A102.35,102.35,0,0,0,1754.79,1010.76Z"/><path class="cls-4" d="M1767.63,996.49l57,71.46c-5.35-9.94-6.52-37.59,3.79-63.51,11.74-29.52,47.57-38.93,47.57-38.93C1819.91,959.53,1785.81,979.67,1767.63,996.49Z"/></g></g></svg>